# Blender v2.77 (sub 0) OBJ File: ''
# www.blender.org
mtllib cylinder.mtl
o Cylinder
v 0.000000 -1.000000 -1.000000
v 0.000000 1.000000 -1.000000
v 0.195090 -1.000000 -0.980785
v 0.195090 1.000000 -0.980785
v 0.382683 -1.000000 -0.923880
v 0.382683 1.000000 -0.923880
v 0.555570 -1.000000 -0.831470
v 0.555570 1.000000 -0.831470
v 0.707107 -1.000000 -0.707107
v 0.707107 1.000000 -0.707107
v 0.831470 -1.000000 -0.555570
v 0.831470 1.000000 -0.555570
v 0.923880 -1.000000 -0.382683
v 0.923880 1.000000 -0.382683
v 0.980785 -1.000000 -0.195090
v 0.980785 1.000000 -0.195090
v 1.000000 -1.000000 -0.000000
v 1.000000 1.000000 -0.000000
v 0.980785 -1.000000 0.195090
v 0.980785 1.000000 0.195090
v 0.923880 -1.000000 0.382683
v 0.923880 1.000000 0.382683
v 0.831470 -1.000000 0.555570
v 0.831470 1.000000 0.555570
v 0.707107 -1.000000 0.707107
v 0.707107 1.000000 0.707107
v 0.555570 -1.000000 0.831470
v 0.555570 1.000000 0.831470
v 0.382683 -1.000000 0.923880
v 0.382683 1.000000 0.923880
v 0.195090 -1.000000 0.980785
v 0.195090 1.000000 0.980785
v -0.000000 -1.000000 1.000000
v -0.000000 1.000000 1.000000
v -0.195091 -1.000000 0.980785
v -0.195091 1.000000 0.980785
v -0.382684 -1.000000 0.923879
v -0.382684 1.000000 0.923879
v -0.555571 -1.000000 0.831469
v -0.555571 1.000000 0.831469
v -0.707107 -1.000000 0.707106
v -0.707107 1.000000 0.707106
v -0.831470 -1.000000 0.555570
v -0.831470 1.000000 0.555570
v -0.923880 -1.000000 0.382683
v -0.923880 1.000000 0.382683
v -0.980785 -1.000000 0.195089
v -0.980785 1.000000 0.195089
v -1.000000 -1.000000 -0.000001
v -1.000000 1.000000 -0.000001
v -0.980785 -1.000000 -0.195091
v -0.980785 1.000000 -0.195091
v -0.923879 -1.000000 -0.382684
v -0.923879 1.000000 -0.382684
v -0.831469 -1.000000 -0.555571
v -0.831469 1.000000 -0.555571
v -0.707106 -1.000000 -0.707108
v -0.707106 1.000000 -0.707108
v -0.555569 -1.000000 -0.831470
v -0.555569 1.000000 -0.831470
v -0.382682 -1.000000 -0.923880
v -0.382682 1.000000 -0.923880
v -0.195089 -1.000000 -0.980786
v -0.195089 1.000000 -0.980786
vn 0.0000 1.0000 0.0000
vn 0.0000 -1.0000 0.0000
vn 0.0000 0.6857 -0.7279
vn 0.1420 -0.6857 -0.7139
vn 0.0000 -0.6857 -0.7279
vn 0.1420 0.6857 -0.7139
vn 0.2785 -0.6857 -0.6725
vn 0.2785 0.6857 -0.6725
vn 0.4044 -0.6857 -0.6052
vn 0.4044 0.6857 -0.6052
vn 0.5147 -0.6857 -0.5147
vn 0.5147 0.6857 -0.5147
vn 0.6052 -0.6857 -0.4044
vn 0.6052 0.6857 -0.4044
vn 0.6725 -0.6857 -0.2785
vn 0.6725 0.6857 -0.2785
vn 0.7139 -0.6857 -0.1420
vn 0.7139 0.6857 -0.1420
vn 0.7279 -0.6857 0.0000
vn 0.7279 0.6857 0.0000
vn 0.7139 -0.6857 0.1420
vn 0.7139 0.6857 0.1420
vn 0.6725 -0.6857 0.2785
vn 0.6725 0.6857 0.2785
vn 0.6052 -0.6857 0.4044
vn 0.6052 0.6857 0.4044
vn 0.5147 -0.6857 0.5147
vn 0.5147 0.6857 0.5147
vn 0.4044 -0.6857 0.6052
vn 0.4044 0.6857 0.6052
vn 0.2785 -0.6857 0.6725
vn 0.2785 0.6857 0.6725
vn 0.1420 -0.6857 0.7139
vn 0.1420 0.6857 0.7139
vn 0.0000 -0.6857 0.7279
vn 0.0000 0.6857 0.7279
vn -0.1420 -0.6857 0.7139
vn -0.1420 0.6857 0.7139
vn -0.2785 -0.6857 0.6725
vn -0.2785 0.6857 0.6725
vn -0.4044 -0.6857 0.6052
vn -0.4044 0.6857 0.6052
vn -0.5147 -0.6857 0.5147
vn -0.5147 0.6857 0.5147
vn -0.6052 -0.6857 0.4044
vn -0.6052 0.6857 0.4044
vn -0.6725 -0.6857 0.2785
vn -0.6725 0.6857 0.2785
vn -0.7139 -0.6857 0.1420
vn -0.7139 0.6857 0.1420
vn -0.7279 -0.6857 0.0000
vn -0.7279 0.6857 0.0000
vn -0.7139 -0.6857 -0.1420
vn -0.7139 0.6857 -0.1420
vn -0.6725 -0.6857 -0.2785
vn -0.6725 0.6857 -0.2785
vn -0.6052 -0.6857 -0.4044
vn -0.6052 0.6857 -0.4044
vn -0.5147 -0.6857 -0.5147
vn -0.5147 0.6857 -0.5147
vn -0.4044 -0.6857 -0.6052
vn -0.4044 0.6857 -0.6052
vn -0.2785 -0.6857 -0.6725
vn -0.2785 0.6857 -0.6725
vn -0.1420 -0.6857 -0.7139
vn -0.1420 0.6857 -0.7139
usemtl None
s off
f 30//1 22//1 6//1
f 31//2 47//2 15//2
f 6//1 4//1 2//1
f 2//1 64//1 6//1
f 62//1 60//1 58//1
f 58//1 56//1 54//1
f 54//1 52//1 50//1
f 50//1 48//1 54//1
f 46//1 44//1 38//1
f 42//1 40//1 38//1
f 38//1 36//1 34//1
f 34//1 32//1 38//1
f 30//1 28//1 26//1
f 26//1 24//1 22//1
f 22//1 20//1 18//1
f 18//1 16//1 14//1
f 14//1 12//1 10//1
f 10//1 8//1 6//1
f 6//1 64//1 62//1
f 62//1 58//1 6//1
f 54//1 48//1 46//1
f 44//1 42//1 38//1
f 38//1 32//1 30//1
f 30//1 26//1 22//1
f 22//1 18//1 14//1
f 14//1 10//1 22//1
f 6//1 58//1 54//1
f 54//1 46//1 38//1
f 38//1 30//1 6//1
f 22//1 10//1 6//1
f 6//1 54//1 38//1
f 63//2 1//2 3//2
f 3//2 5//2 7//2
f 7//2 9//2 11//2
f 11//2 13//2 7//2
f 15//2 17//2 19//2
f 19//2 21//2 15//2
f 23//2 25//2 31//2
f 27//2 29//2 31//2
f 31//2 33//2 35//2
f 35//2 37//2 31//2
f 39//2 41//2 43//2
f 43//2 45//2 47//2
f 47//2 49//2 51//2
f 51//2 53//2 55//2
f 55//2 57//2 63//2
f 59//2 61//2 63//2
f 63//2 3//2 15//2
f 7//2 13//2 15//2
f 15//2 21//2 23//2
f 25//2 27//2 31//2
f 31//2 37//2 39//2
f 39//2 43//2 47//2
f 47//2 51//2 63//2
f 57//2 59//2 63//2
f 3//2 7//2 15//2
f 15//2 23//2 31//2
f 31//2 39//2 47//2
f 51//2 55//2 63//2
f 63//2 15//2 47//2
s 1
f 2//3 3//4 1//5
f 4//6 5//7 3//4
f 6//8 7//9 5//7
f 8//10 9//11 7//9
f 10//12 11//13 9//11
f 12//14 13//15 11//13
f 14//16 15//17 13//15
f 16//18 17//19 15//17
f 18//20 19//21 17//19
f 20//22 21//23 19//21
f 22//24 23//25 21//23
f 24//26 25//27 23//25
f 26//28 27//29 25//27
f 28//30 29//31 27//29
f 30//32 31//33 29//31
f 32//34 33//35 31//33
f 34//36 35//37 33//35
f 36//38 37//39 35//37
f 38//40 39//41 37//39
f 40//42 41//43 39//41
f 42//44 43//45 41//43
f 44//46 45//47 43//45
f 46//48 47//49 45//47
f 48//50 49//51 47//49
f 50//52 51//53 49//51
f 52//54 53//55 51//53
f 54//56 55//57 53//55
f 56//58 57//59 55//57
f 58//60 59//61 57//59
f 60//62 61//63 59//61
f 62//64 63//65 61//63
f 64//66 1//5 63//65
f 2//3 4//6 3//4
f 4//6 6//8 5//7
f 6//8 8//10 7//9
f 8//10 10//12 9//11
f 10//12 12//14 11//13
f 12//14 14//16 13//15
f 14//16 16//18 15//17
f 16//18 18//20 17//19
f 18//20 20//22 19//21
f 20//22 22//24 21//23
f 22//24 24//26 23//25
f 24//26 26//28 25//27
f 26//28 28//30 27//29
f 28//30 30//32 29//31
f 30//32 32//34 31//33
f 32//34 34//36 33//35
f 34//36 36//38 35//37
f 36//38 38//40 37//39
f 38//40 40//42 39//41
f 40//42 42//44 41//43
f 42//44 44//46 43//45
f 44//46 46//48 45//47
f 46//48 48//50 47//49
f 48//50 50//52 49//51
f 50//52 52//54 51//53
f 52//54 54//56 53//55
f 54//56 56//58 55//57
f 56//58 58//60 57//59
f 58//60 60//62 59//61
f 60//62 62//64 61//63
f 62//64 64//66 63//65
f 64//66 2//3 1//5
