# Blender v2.77 (sub 0) OBJ File: 'pinball.blend'
# www.blender.org
mtllib c_extWall2.mtl
o Circle.007_Circle.010
v -51.502075 1.882565 -9.217550
v -56.113239 1.882565 -9.217550
v -56.113239 -0.117435 -9.217550
v -51.502075 -0.117435 -9.217550
v -37.086609 1.882563 -11.202755
v -35.625042 1.882563 -11.903251
v -36.589191 1.882564 -12.995556
v -37.974033 1.882564 -14.099791
v -39.544411 1.882564 -14.680214
v -41.239990 1.882565 -14.943673
v -42.052029 1.882565 -14.860280
v -42.995583 1.882565 -14.808474
v -44.743748 1.882565 -14.580843
v -46.417305 1.882565 -14.204706
v -47.951923 1.882565 -13.634882
v -49.288643 1.882565 -12.893266
v -50.376099 1.882565 -12.008360
v -51.172478 1.882565 -11.014170
v -54.132896 1.882565 -12.051331
v -53.062164 1.882565 -13.569925
v -51.597141 1.882565 -14.919226
v -49.794128 1.882565 -16.047379
v -47.722427 1.882565 -16.911030
v -45.461636 1.882565 -17.476990
v -43.098637 1.882565 -17.723509
v -41.962334 1.882565 -17.684076
v -40.724258 1.882564 -17.641119
v -38.429722 1.882563 -17.232979
v -36.303211 1.882563 -16.514774
v -34.426437 1.882562 -15.514109
v -31.921562 1.882563 -14.269432
v -29.500889 1.882563 -13.951267
v -24.995394 1.882563 -13.951267
v -23.802195 1.882562 -18.631590
v -42.344929 1.882565 -19.607454
v -45.599243 1.882565 -19.286932
v -48.728493 1.882565 -18.337683
v -51.612404 1.882565 -16.796186
v -54.140213 1.882565 -14.721684
v -56.214699 1.882565 -12.193893
v -56.970284 1.882565 -10.780328
v -51.454666 1.882565 -9.335417
v -50.655846 1.882565 -10.462430
v -49.580818 1.882565 -11.450266
v -48.270893 1.882565 -12.260962
v -46.776413 1.882565 -12.863363
v -45.154808 1.882565 -13.234319
v -43.468391 1.882564 -13.359576
v -41.781979 1.882564 -13.234318
v -40.160370 1.882564 -12.863361
v -38.665890 1.882564 -12.260960
v -37.355965 1.882564 -11.450263
v -56.970284 -0.117435 -10.780328
v -42.052029 -0.117435 -14.860280
v -41.239990 -0.117435 -14.943673
v -39.544411 -0.117436 -14.680214
v -37.974033 -0.117436 -14.099791
v -36.589191 -0.117436 -12.995556
v -35.625042 -0.117437 -11.903251
v -37.086609 -0.117436 -11.202755
v -37.355965 -0.117436 -11.450263
v -38.665890 -0.117436 -12.260960
v -40.160370 -0.117436 -12.863361
v -41.781979 -0.117436 -13.234318
v -43.468391 -0.117436 -13.359576
v -45.154808 -0.117435 -13.234319
v -46.776413 -0.117435 -12.863363
v -48.270893 -0.117435 -12.260962
v -49.580818 -0.117435 -11.450266
v -50.655846 -0.117435 -10.462430
v -51.454666 -0.117434 -9.335417
v -56.214699 -0.117435 -12.193893
v -54.140213 -0.117435 -14.721684
v -51.612404 -0.117435 -16.796186
v -48.728493 -0.117435 -18.337683
v -45.599243 -0.117435 -19.286932
v -42.344929 -0.117435 -19.607454
v -23.802195 -0.117438 -18.631590
v -24.995394 -0.117437 -13.951267
v -29.500889 -0.117437 -13.951267
v -31.921562 -0.117437 -14.269432
v -34.426437 -0.117437 -15.514109
v -36.303211 -0.117437 -16.514774
v -38.429722 -0.117436 -17.232979
v -40.724258 -0.117436 -17.641119
v -41.962334 -0.117435 -17.684076
v -43.098637 -0.117435 -17.723509
v -45.461636 -0.117435 -17.476990
v -47.722427 -0.117435 -16.911030
v -49.794128 -0.117435 -16.047379
v -51.597141 -0.117435 -14.919226
v -53.062164 -0.117435 -13.569925
v -54.132896 -0.117435 -12.051331
v -51.172478 -0.117435 -11.014170
v -50.376099 -0.117435 -12.008360
v -49.288643 -0.117435 -12.893266
v -47.951923 -0.117435 -13.634882
v -46.417305 -0.117435 -14.204706
v -44.743748 -0.117435 -14.580843
v -42.995583 -0.117435 -14.808474
v 12.805759 1.882562 -18.631590
v 12.805759 -0.117438 -18.631590
v 12.826746 1.882565 -19.607454
v 12.826746 -0.117435 -19.607454
vn 0.0000 0.0000 1.0000
vn -0.8768 0.0000 0.4808
vn 0.4322 0.0000 0.9018
vn 0.7497 0.0000 -0.6618
vn 0.6234 0.0000 -0.7819
vn 0.3467 0.0000 -0.9380
vn 0.1535 0.0000 -0.9881
vn -0.1022 0.0000 -0.9948
vn -0.0548 0.0000 -0.9985
vn -0.1291 0.0000 -0.9916
vn -0.2193 0.0000 -0.9757
vn -0.3481 0.0000 -0.9375
vn -0.4851 0.0000 -0.8744
vn -0.6312 0.0000 -0.7756
vn -0.7805 0.0000 -0.6252
vn 0.3306 0.0000 -0.9438
vn 0.8173 0.0000 0.5762
vn 0.6775 0.0000 0.7356
vn 0.5304 0.0000 0.8477
vn 0.3848 0.0000 0.9230
vn 0.2428 0.0000 0.9701
vn 0.1038 0.0000 0.9946
vn -0.0347 0.0000 0.9994
vn -0.1751 0.0000 0.9845
vn -0.3200 0.0000 0.9474
vn -0.4705 0.0000 0.8824
vn -0.4450 0.0000 0.8955
vn -0.1303 0.0000 0.9915
vn 0.9690 0.0000 0.2470
vn -0.0980 0.0000 -0.9952
vn -0.2903 0.0000 -0.9569
vn -0.4714 0.0000 -0.8819
vn -0.6344 0.0000 -0.7730
vn -0.7730 0.0000 -0.6344
vn -0.8819 0.0000 -0.4714
vn 0.9278 0.0000 0.3732
vn 0.8158 0.0000 0.5783
vn 0.6766 0.0000 0.7363
vn 0.5263 0.0000 0.8503
vn 0.3739 0.0000 0.9275
vn 0.2230 0.0000 0.9748
vn 0.0741 0.0000 0.9973
vn -0.0741 0.0000 0.9973
vn -0.2230 0.0000 0.9748
vn -0.3739 0.0000 0.9275
vn -0.5263 0.0000 0.8503
vn -0.6766 0.0000 0.7363
vn 0.0000 0.0000 -1.0000
vn 0.9998 0.0000 0.0215
usemtl None
s off
f 2//1 4//1 1//1
f 41//2 3//2 2//2
f 59//3 5//3 60//3
f 58//4 6//4 59//4
f 57//5 7//5 58//5
f 56//6 8//6 57//6
f 9//7 55//7 10//7
f 55//8 11//8 10//8
f 54//9 12//9 11//9
f 99//10 12//10 100//10
f 98//11 13//11 99//11
f 97//12 14//12 98//12
f 96//13 15//13 97//13
f 95//14 16//14 96//14
f 94//15 17//15 95//15
f 18//16 93//16 19//16
f 92//17 19//17 93//17
f 91//18 20//18 92//18
f 90//19 21//19 91//19
f 89//20 22//20 90//20
f 88//21 23//21 89//21
f 87//22 24//22 88//22
f 86//23 26//23 25//23
f 85//24 28//24 27//24
f 84//25 29//25 28//25
f 83//26 30//26 29//26
f 30//27 81//27 31//27
f 80//28 31//28 81//28
f 79//1 32//1 80//1
f 79//29 34//29 33//29
f 36//30 77//30 76//30
f 37//31 76//31 75//31
f 38//32 75//32 74//32
f 39//33 74//33 73//33
f 40//34 73//34 72//34
f 40//35 53//35 41//35
f 71//36 1//36 4//36
f 71//37 43//37 42//37
f 70//38 44//38 43//38
f 69//39 45//39 44//39
f 68//40 46//40 45//40
f 67//41 47//41 46//41
f 66//42 48//42 47//42
f 65//43 49//43 48//43
f 64//44 50//44 49//44
f 63//45 51//45 50//45
f 62//46 52//46 51//46
f 61//47 5//47 52//47
f 78//1 101//1 34//1
f 35//48 104//48 77//48
f 104//49 101//49 102//49
f 2//1 3//1 4//1
f 41//2 53//2 3//2
f 59//3 6//3 5//3
f 58//4 7//4 6//4
f 57//5 8//5 7//5
f 56//6 9//6 8//6
f 9//7 56//7 55//7
f 55//8 54//8 11//8
f 54//9 100//9 12//9
f 99//10 13//10 12//10
f 98//11 14//11 13//11
f 97//12 15//12 14//12
f 96//13 16//13 15//13
f 95//14 17//14 16//14
f 94//15 18//15 17//15
f 18//16 94//16 93//16
f 92//17 20//17 19//17
f 91//18 21//18 20//18
f 90//19 22//19 21//19
f 89//20 23//20 22//20
f 88//21 24//21 23//21
f 87//22 25//22 24//22
f 25//23 87//23 86//23
f 86//23 85//23 27//23
f 27//23 26//23 86//23
f 85//24 84//24 28//24
f 84//25 83//25 29//25
f 83//26 82//26 30//26
f 30//27 82//27 81//27
f 80//28 32//28 31//28
f 79//1 33//1 32//1
f 79//29 78//29 34//29
f 36//30 35//30 77//30
f 37//31 36//31 76//31
f 38//32 37//32 75//32
f 39//33 38//33 74//33
f 40//34 39//34 73//34
f 40//35 72//35 53//35
f 71//36 42//36 1//36
f 71//37 70//37 43//37
f 70//38 69//38 44//38
f 69//39 68//39 45//39
f 68//40 67//40 46//40
f 67//41 66//41 47//41
f 66//42 65//42 48//42
f 65//43 64//43 49//43
f 64//44 63//44 50//44
f 63//45 62//45 51//45
f 62//46 61//46 52//46
f 61//47 60//47 5//47
f 78//1 102//1 101//1
f 35//48 103//48 104//48
f 104//49 103//49 101//49
