# Blender v2.77 (sub 0) OBJ File: 'pinball.blend'
# www.blender.org
mtllib c_island.mtl
o Circle.008_Circle.011
v -35.848770 -0.117435 5.923921
v -31.674709 -0.117435 9.184415
v -35.961346 -0.117435 12.484894
v -39.090588 -0.117435 13.434143
v -42.344925 -0.117435 13.754665
v -45.599239 -0.117435 13.434145
v -45.923820 -0.117435 13.335684
v -44.745857 -0.117435 11.444531
v -42.140923 -0.117435 11.701097
v -37.905075 -0.117435 10.818830
v -35.848770 1.882565 5.923921
v -31.674709 1.882565 9.184415
v -35.961346 1.882565 12.484894
v -39.090588 1.882565 13.434143
v -42.344925 1.882565 13.754665
v -45.599239 1.882565 13.434145
v -45.923820 1.882565 13.335684
v -44.745857 1.882565 11.444531
v -37.905075 1.882565 10.818830
v -42.140923 1.882565 11.701097
vn 0.6156 0.0000 -0.7881
vn 0.6101 0.0000 0.7923
vn 0.2903 0.0000 0.9569
vn 0.0980 0.0000 0.9952
vn -0.0980 0.0000 0.9952
vn -0.2903 0.0000 0.9569
vn -0.8488 0.0000 -0.5287
vn -0.9220 0.0000 -0.3873
vn -0.2039 0.0000 -0.9790
vn 0.0980 0.0000 -0.9952
vn 0.6101 0.0000 0.7924
usemtl None
s off
f 12//1 1//1 11//1
f 3//2 12//2 13//2
f 13//3 4//3 3//3
f 14//4 5//4 4//4
f 15//5 6//5 5//5
f 6//6 17//6 7//6
f 7//7 18//7 8//7
f 11//8 10//8 19//8
f 9//9 19//9 10//9
f 8//10 20//10 9//10
f 12//1 2//1 1//1
f 3//11 2//11 12//11
f 13//3 14//3 4//3
f 14//4 15//4 5//4
f 15//5 16//5 6//5
f 6//6 16//6 17//6
f 7//7 17//7 18//7
f 11//8 1//8 10//8
f 9//9 20//9 19//9
f 8//10 18//10 20//10
