# Blender v2.77 (sub 0) OBJ File: 'pinball.blend'
# www.blender.org
mtllib c_divider1.mtl
o Cube.010_Cube.025
v -31.476751 1.882565 -3.420639
v -31.234793 1.882565 -3.759168
v -31.234793 -0.117435 -3.759168
v -31.476751 -0.117435 -3.420639
v -31.234793 1.882565 -3.082110
v -31.234793 -0.117435 -3.082110
v -25.227528 1.882565 -3.759168
v -25.227528 -0.117435 -3.759168
v -25.227528 1.882565 -3.082110
v -25.227528 -0.117435 -3.082110
v -24.985571 1.882565 -3.420639
v -24.985571 -0.117435 -3.420639
v -31.476751 1.882565 3.420639
v -31.476751 -0.117435 3.420639
v -31.234791 -0.117435 3.759168
v -31.234791 1.882565 3.759168
v -31.234791 1.882565 3.082110
v -31.234791 -0.117435 3.082110
v -25.227524 -0.117435 3.759168
v -25.227524 1.882565 3.759168
v -25.227524 1.882565 3.082110
v -25.227524 -0.117435 3.082110
v -24.985567 -0.117435 3.420639
v -24.985567 1.882565 3.420639
v -31.476751 1.882565 0.000000
v -31.234793 1.882565 -0.338529
v -31.234793 -0.117435 -0.338529
v -31.476751 -0.117435 0.000000
v -31.234793 1.882565 0.338529
v -31.234793 -0.117435 0.338529
v -25.227528 1.882565 -0.338529
v -25.227528 -0.117435 -0.338529
v -25.227528 1.882565 0.338529
v -25.227528 -0.117435 0.338529
v -24.985571 1.882565 0.000000
v -24.985571 -0.117435 0.000000
vn -0.8136 0.0000 -0.5815
vn -0.8136 0.0000 0.5815
vn 0.0000 0.0000 -1.0000
vn 0.0000 0.0000 1.0000
vn 0.8136 0.0000 -0.5815
vn 0.8136 0.0000 0.5815
usemtl None
s off
f 2//1 4//1 1//1
f 1//2 6//2 5//2
f 7//3 3//3 2//3
f 5//4 10//4 9//4
f 11//5 8//5 7//5
f 9//6 12//6 11//6
f 14//2 16//2 13//2
f 18//1 13//1 17//1
f 15//4 20//4 16//4
f 22//3 17//3 21//3
f 19//6 24//6 20//6
f 23//5 21//5 24//5
f 26//1 28//1 25//1
f 25//2 30//2 29//2
f 31//3 27//3 26//3
f 29//4 34//4 33//4
f 35//5 32//5 31//5
f 33//6 36//6 35//6
f 2//1 3//1 4//1
f 1//2 4//2 6//2
f 7//3 8//3 3//3
f 5//4 6//4 10//4
f 11//5 12//5 8//5
f 9//6 10//6 12//6
f 14//2 15//2 16//2
f 18//1 14//1 13//1
f 15//4 19//4 20//4
f 22//3 18//3 17//3
f 19//6 23//6 24//6
f 23//5 22//5 21//5
f 26//1 27//1 28//1
f 25//2 28//2 30//2
f 31//3 32//3 27//3
f 29//4 30//4 34//4
f 35//5 36//5 32//5
f 33//6 34//6 36//6
