# Blender v2.77 (sub 0) OBJ File: 'pinball.blend'
# www.blender.org
mtllib c_paddle.mtl
o Circle
v 0.000000 0.000000 -1.235189
v -0.240973 0.000000 -1.211455
v -0.472687 0.000000 -1.141166
v -0.686234 0.000000 -1.027022
v -0.873411 0.000000 -0.873411
v -1.027022 0.000000 -0.686234
v -1.141166 0.000000 -0.472686
v -1.211455 0.000000 -0.240974
v -1.235189 0.000000 -0.000000
v -1.211456 0.000000 0.240973
v -1.141166 0.000000 0.472686
v -1.027022 0.000000 0.686234
v -0.873411 0.000000 0.873411
v -0.686234 0.000000 1.027022
v -0.472686 0.000000 1.141166
v -0.240973 0.000000 1.211456
v 0.000000 0.000000 1.235189
v 0.240974 0.000000 1.211455
v 7.086354 0.000000 0.737197
v 7.224307 0.000000 0.663459
v 7.345223 0.000000 0.564225
v 7.444457 0.000000 0.443309
v 7.518194 0.000000 0.305356
v 7.563601 0.000000 0.155669
v 7.578933 0.000000 -0.000001
v 7.563601 0.000000 -0.155671
v 7.518193 0.000000 -0.305358
v 7.444457 0.000000 -0.443311
v 7.345222 0.000000 -0.564227
v 7.224306 0.000000 -0.663461
v 7.086352 0.000000 -0.737198
v 0.240972 0.000000 -1.211456
v 0.000000 2.006572 -1.235189
v -0.240973 2.006572 -1.211455
v -0.472687 2.006572 -1.141166
v -0.686234 2.006572 -1.027022
v -0.873411 2.006572 -0.873411
v -1.027022 2.006572 -0.686234
v -1.141166 2.006572 -0.472686
v -1.211455 2.006572 -0.240974
v -1.235189 2.006572 -0.000000
v -1.211456 2.006572 0.240973
v -1.141166 2.006572 0.472686
v -1.027022 2.006572 0.686234
v -0.873411 2.006572 0.873411
v -0.686234 2.006572 1.027022
v -0.472686 2.006572 1.141166
v -0.240973 2.006572 1.211456
v 0.000000 2.006572 1.235189
v 0.240974 2.006572 1.211455
v 7.086354 2.006572 0.737197
v 7.224307 2.006572 0.663459
v 7.345223 2.006572 0.564225
v 7.444457 2.006572 0.443309
v 7.518194 2.006572 0.305356
v 7.563601 2.006572 0.155669
v 7.578933 2.006572 -0.000001
v 7.563601 2.006572 -0.155671
v 7.518193 2.006572 -0.305358
v 7.444457 2.006572 -0.443311
v 7.345222 2.006572 -0.564227
v 7.224306 2.006572 -0.663461
v 7.086352 2.006572 -0.737198
v 0.240972 2.006572 -1.211456
vn 0.0691 0.0000 -0.9976
vn 0.0691 0.0000 0.9976
vn -0.7730 0.0000 -0.6344
vn 0.0980 0.0000 -0.9952
vn 0.4714 0.0000 0.8819
vn -0.8819 0.0000 -0.4714
vn 0.6344 0.0000 0.7730
vn -0.9569 0.0000 -0.2903
vn 0.7730 0.0000 0.6344
vn -0.9952 0.0000 -0.0980
vn 0.8819 0.0000 0.4714
vn -0.9952 0.0000 0.0980
vn 0.9569 0.0000 0.2903
vn -0.9569 0.0000 0.2903
vn 0.9952 0.0000 0.0980
vn -0.8819 0.0000 0.4714
vn 0.9952 0.0000 -0.0980
vn -0.7730 0.0000 0.6344
vn 0.9569 0.0000 -0.2903
vn -0.6344 0.0000 0.7730
vn 0.8819 0.0000 -0.4714
vn -0.4714 0.0000 0.8819
vn -0.0980 0.0000 -0.9952
vn 0.7730 0.0000 -0.6344
vn -0.2903 0.0000 0.9569
vn -0.2903 0.0000 -0.9569
vn 0.6344 0.0000 -0.7730
vn -0.0980 0.0000 0.9952
vn -0.4714 0.0000 -0.8819
vn 0.4714 0.0000 -0.8819
vn 0.0980 0.0000 0.9952
vn -0.6344 0.0000 -0.7730
usemtl None
s off
f 32//1 63//1 31//1
f 19//2 50//2 18//2
f 6//3 37//3 5//3
f 1//4 64//4 32//4
f 20//5 51//5 19//5
f 7//6 38//6 6//6
f 21//7 52//7 20//7
f 8//8 39//8 7//8
f 22//9 53//9 21//9
f 9//10 40//10 8//10
f 23//11 54//11 22//11
f 10//12 41//12 9//12
f 24//13 55//13 23//13
f 11//14 42//14 10//14
f 25//15 56//15 24//15
f 12//16 43//16 11//16
f 26//17 57//17 25//17
f 13//18 44//18 12//18
f 27//19 58//19 26//19
f 14//20 45//20 13//20
f 28//21 59//21 27//21
f 15//22 46//22 14//22
f 2//23 33//23 1//23
f 29//24 60//24 28//24
f 16//25 47//25 15//25
f 3//26 34//26 2//26
f 30//27 61//27 29//27
f 17//28 48//28 16//28
f 4//29 35//29 3//29
f 31//30 62//30 30//30
f 18//31 49//31 17//31
f 5//32 36//32 4//32
f 32//1 64//1 63//1
f 19//2 51//2 50//2
f 6//3 38//3 37//3
f 1//4 33//4 64//4
f 20//5 52//5 51//5
f 7//6 39//6 38//6
f 21//7 53//7 52//7
f 8//8 40//8 39//8
f 22//9 54//9 53//9
f 9//10 41//10 40//10
f 23//11 55//11 54//11
f 10//12 42//12 41//12
f 24//13 56//13 55//13
f 11//14 43//14 42//14
f 25//15 57//15 56//15
f 12//16 44//16 43//16
f 26//17 58//17 57//17
f 13//18 45//18 44//18
f 27//19 59//19 58//19
f 14//20 46//20 45//20
f 28//21 60//21 59//21
f 15//22 47//22 46//22
f 2//23 34//23 33//23
f 29//24 61//24 60//24
f 16//25 48//25 47//25
f 3//26 35//26 34//26
f 30//27 62//27 61//27
f 17//28 49//28 48//28
f 4//29 36//29 35//29
f 31//30 63//30 62//30
f 18//31 50//31 49//31
f 5//32 37//32 36//32
