# Blender v2.77 (sub 0) OBJ File: 'pinball.blend'
# www.blender.org
mtllib board.mtl
o Plane.009_Plane.010
v -63.340855 -1.719572 19.614357
v 13.833673 -1.719572 19.614357
v -63.340855 -1.719572 -23.346703
v 13.833673 -1.719572 -23.346703
v -63.340855 5.523766 -23.346703
v -63.340855 5.523766 19.614357
v 13.833673 5.523766 19.614357
v 13.833673 5.523766 -23.346703
v -62.291649 -0.025575 -22.437706
v -62.291649 -0.025575 18.656576
v 12.888484 -0.025575 18.656576
v 12.888484 -0.025575 -22.437706
v -62.291649 5.311972 -22.437706
v -62.549950 5.397168 -22.661489
v -62.549950 5.397168 18.892370
v -62.291649 5.311972 18.656576
v 13.121179 5.397168 18.892370
v 12.888484 5.311972 18.656576
v 13.121179 5.397168 -22.661489
v 12.888484 5.311972 -22.437706
vt 0.5521 0.3618
vt 0.8827 0.4760
vt 0.5521 0.4760
vt 0.8877 0.3312
vt 1.0000 0.3396
vt 0.8858 0.3396
vt 0.1144 0.0002
vt 0.0002 0.4424
vt 0.0002 0.0002
vt 0.1142 0.0000
vt 0.0000 0.4422
vt 0.0000 0.0000
vt 0.4450 0.0002
vt 0.1144 0.4424
vt 0.4448 0.0000
vt 0.1142 0.4422
vt 0.5589 0.3257
vt 0.8807 0.0000
vt 0.8808 0.3257
vt 0.5594 0.3257
vt 0.8812 0.0000
vt 0.8812 0.3257
vt 0.8882 0.3262
vt 0.9975 0.0004
vt 0.9975 0.3262
vt 0.0000 1.0000
vt 0.9029 0.5132
vt 0.9029 1.0000
vt 0.5549 0.3393
vt 0.8819 0.3313
vt 0.8853 0.3393
vt 0.8858 0.3398
vt 0.9981 0.3315
vt 1.0000 0.3398
vt 0.5583 0.3313
vt 0.8853 0.3392
vt 0.5549 0.3392
vt 0.9982 0.3312
vt 0.8883 0.3259
vt 0.9976 0.3259
vt 0.5579 0.3313
vt 0.8876 0.3315
vt 0.8823 0.3313
vt 0.9976 0.0000
vt 0.8827 0.3618
vt 0.4450 0.4424
vt 0.4448 0.4422
vt 0.5589 0.0000
vt 0.5594 0.0000
vt 0.8882 0.0004
vt 0.0000 0.5132
vt 0.8883 0.0000
vn 0.0000 -1.0000 0.0000
vn 0.1581 0.9874 0.0000
vn 1.0000 0.0000 0.0000
vn -1.0000 0.0000 0.0000
vn 0.0000 0.0000 -1.0000
vn 0.0000 0.0000 1.0000
vn 0.0000 1.0000 0.0000
vn 0.0000 0.9850 -0.1727
vn -0.1749 0.9846 0.0000
vn 0.0000 0.9834 0.1817
vn 0.3132 0.9497 0.0000
vn 0.0000 0.9405 -0.3398
vn -0.3438 0.9390 0.0000
vn 0.0000 0.9346 0.3558
usemtl Material.007
s off
f 3/1/1 2/2/1 1/3/1
f 15/4/2 5/5/2 6/6/2
f 4/7/3 7/8/3 2/9/3
f 1/10/4 5/11/4 3/12/4
f 3/13/5 8/14/5 4/7/5
f 2/15/6 6/16/6 1/10/6
f 18/17/5 10/18/5 16/19/5
f 13/20/6 12/21/6 20/22/6
f 20/23/4 11/24/4 18/25/4
f 11/26/7 9/27/7 10/28/7
f 7/29/8 15/30/8 6/31/8
f 8/32/9 17/33/9 7/34/9
f 14/35/10 8/36/10 5/37/10
f 14/38/11 16/39/11 13/40/11
f 17/41/12 16/19/12 15/30/12
f 19/42/13 18/25/13 17/33/13
f 19/43/14 13/20/14 20/22/14
f 16/39/3 9/44/3 13/40/3
f 3/1/1 4/45/1 2/2/1
f 15/4/2 14/38/2 5/5/2
f 4/7/3 8/14/3 7/8/3
f 1/10/4 6/16/4 5/11/4
f 3/13/5 5/46/5 8/14/5
f 2/15/6 7/47/6 6/16/6
f 18/17/5 11/48/5 10/18/5
f 13/20/6 9/49/6 12/21/6
f 20/23/4 12/50/4 11/24/4
f 11/26/7 12/51/7 9/27/7
f 7/29/8 17/41/8 15/30/8
f 8/32/9 19/42/9 17/33/9
f 14/35/10 19/43/10 8/36/10
f 14/38/11 15/4/11 16/39/11
f 17/41/12 18/17/12 16/19/12
f 19/42/13 20/23/13 18/25/13
f 19/43/14 14/35/14 13/20/14
f 16/39/3 10/52/3 9/44/3
